<svg xmlns="http://www.w3.org/2000/svg" version="1.1" xmlns:xlink="http://www.w3.org/1999/xlink" width="512" height="512" x="0" y="0" viewBox="0 0 66 66" style="enable-background:new 0 0 512 512" xml:space="preserve">
<g>
<path d="M64 54.86h-3.19V20.88c0-2.69-2.19-4.88-4.88-4.88H39.02c-.48 0-.88.39-.88.88s.39.88.88.88h16.91c1.72 0 3.13 1.4 3.13 3.13v33.98H6.95V20.88c0-1.64 1.23-2.97 2.86-3.11.48-.04.84-.46.8-.94s-.46-.83-.94-.8c-2.54.21-4.46 2.3-4.46 4.85v33.98H2c-.48 0-.88.39-.88.88 0 5 4.07 9.07 9.07 9.07h45.6c5 0 9.07-4.07 9.07-9.07a.852.852 0 0 0-.86-.88zm-8.2 8.2H10.2a7.33 7.33 0 0 1-7.27-6.45h60.15c-.44 3.63-3.54 6.45-7.28 6.45z" fill="#917A78" opacity="1" data-original="#917A78">
</path>
<path d="M29.87 60.71h6.26c.48 0 .88-.39.88-.88s-.39-.88-.88-.88h-6.26c-.48 0-.88.39-.88.88s.4.88.88.88zM9.2 20.88v30.85c0 .48.39.88.88.88h45.86c.48 0 .88-.39.88-.88V20.88c0-.48-.39-.88-.88-.88H37.4c-.48 0-.88.39-.88.88s.39.88.88.88h2.89l-8.14 8.14-20.96 20.95h-.24v-29.1h.39c.48 0 .88-.39.88-.88s-.39-.87-.88-.87h-1.27c-.48 0-.87.4-.87.88zm26.11 8.34 7.47-7.47h3.18l-4.32 4.32c-.16.16-.26.39-.26.62s.09.45.26.62l13.42 13.42v3.18L40.05 28.9a.881.881 0 0 0-1.24 0L26.58 41.13c-.34.34-.34.9 0 1.24l8.5 8.5H31.9l-6.9-6.9a.881.881 0 0 0-1.24 0l-6.9 6.9h-3.18zM24.37 45.81l5.05 5.05h-10.1zm13.18 5.05-9.11-9.11 10.99-10.99 15.63 15.63v4.48H37.55zm17.5-12.61L43.49 26.69l4.94-4.94h6.62z"
fill="#917A78" opacity="1" data-original="#917A78">
</path>
<path d="M24.37 33.98c.26 0 .51-.12.67-.32.47-.56 11.46-13.9 11.46-20.34 0-6.69-5.44-12.13-12.13-12.13S12.24 6.63 12.24 13.32c0 6.45 10.99 19.78 11.46 20.34.16.21.41.32.67.32zm0-31.04c5.72 0 10.38 4.66 10.38 10.38 0 4.97-7.98 15.38-10.38 18.39-2.4-3.02-10.38-13.42-10.38-18.39 0-5.72 4.66-10.38 10.38-10.38z" fill="#917A78" opacity="1" data-original="#917A78">
</path>
<path d="M30.79 13.32c0-3.54-2.88-6.42-6.42-6.42s-6.42 2.88-6.42 6.42 2.88 6.42 6.42 6.42 6.42-2.88 6.42-6.42zm-11.08 0a4.669 4.669 0 1 1 4.67 4.67c-2.58 0-4.67-2.1-4.67-4.67z"
fill="#917A78" opacity="1" data-original="#917A78">
</path>
</g>
</svg>