<svg xmlns="http://www.w3.org/2000/svg" version="1.1" xmlns:xlink="http://www.w3.org/1999/xlink" width="512" height="512" x="0" y="0" viewBox="0 0 509.982 509.982" style="enable-background:new 0 0 512 512" xml:space="preserve" class="">
<g>
<path d="m504.36 338.45-110.248-62.511v-25.647h18.085c21.464 0 38.926-17.463 38.926-38.927v-8.63c0-7.812-6.355-14.167-14.167-14.167h-18.918c-9.016 0-17.32 3.09-23.926 8.255 0 0-.172-50.935-.472-53.315h28.681c11.275 0 22.178-2.385 32.402-7.088a7.498 7.498 0 0 0 3.68-9.947 7.499 7.499 0 0 0-9.947-3.68c-8.245 3.792-17.038 5.715-26.135 5.715h-28.209v-11.497c0-34.539 28.1-62.639 62.639-62.639h28.21v11.496c0 14.133-4.61 27.481-13.332 38.604a7.5 7.5 0 0 0 11.804 9.256c10.813-13.79 16.527-30.34 16.527-47.86V52.273c0-7.112-5.787-12.899-12.9-12.899h-30.31c-41.184 0-74.964 32.237-77.473 72.8-10.579-11.752-25.898-19.156-42.918-19.156h-23.972c-6.533 0-11.849 5.315-11.849 11.85v17.312c0 31.844 25.907 57.751 57.751 57.751h20.821v87.505l-116.833-66.245v-15.825h10.694c13.779 0 24.99-11.211 24.99-24.991v-7.403c0-7.851-6.388-14.238-14.238-14.238h-11.455c-4.12 0-8.006 1.008-11.435 2.781-3.448-9.679-12.699-16.629-23.547-16.629h-11.455c-7.851 0-14.238 6.388-14.238 14.239v7.403c0 13.779 11.211 24.99 24.99 24.99h10.694V202.185L114.659 277.38v-35.866h10.436c17.821 0 32.319-14.498 32.319-32.318v-8.775c0-7.569-6.158-13.727-13.727-13.727H131.98c-12.506 0-23.367 7.144-28.739 17.561-7.703-8.219-18.644-13.37-30.771-13.37H61.116c-7.637 0-13.85 6.213-13.85 13.85v11.355c0 23.264 18.927 42.19 42.19 42.19H99.66v27.604l-29.24 16.579a7.5 7.5 0 1 0 7.399 13.049l21.842-12.384v48.669c0 4.143 3.357 7.5 7.5 7.5s7.5-3.357 7.5-7.5v-57.175l27.965-15.856 97.447 55.253-123.652 70.111-96.154-55.986 27.205-15.425a7.5 7.5 0 0 0-7.399-13.049L6.951 338.45a11.12 11.12 0 0 0-5.621 9.586 11.12 11.12 0 0 0 5.512 9.648l105.797 61.6.021.012 137.415 80.01c1.721 1.002 3.65 1.503 5.58 1.503s3.86-.501 5.581-1.503l178.978-104.21a7.5 7.5 0 0 0 2.708-10.255c-2.085-3.58-6.679-4.794-10.255-2.708l-38.148 22.212-124.034-70.328 97.824-55.467 10.803 6.125V341.3c0 4.143 3.357 7.5 7.5 7.5s7.5-3.357 7.5-7.5v-48.118l96.933 54.961-28.377 16.523a7.5 7.5 0 0 0 3.78 13.983c1.281 0 2.58-.328 3.767-1.02l34.255-19.945a11.12 11.12 0 0 0 5.512-9.648 11.12 11.12 0 0 0-5.622-9.586zm-86.322-134.882h18.085v7.797c0 13.193-10.733 23.927-23.926 23.927h-18.085v-7.797c0-13.193 10.734-23.927 23.926-23.927zm-59.747-38.639c-23.573 0-42.751-19.178-42.751-42.751v-14.161h20.82c23.573 0 42.752 19.179 42.752 42.752v14.16zm-243.63 54.082c0-9.55 7.77-17.319 17.319-17.319h10.436v7.502c0 9.55-7.77 17.318-17.319 17.318h-10.436zm-25.204 24.267c-14.993 0-27.19-12.197-27.19-27.19v-10.205h10.204c14.993 0 27.19 12.197 27.19 27.19v10.205zm182.814-89.547h10.693v6.642c0 5.509-4.481 9.991-9.99 9.991H262.28v-6.643c-.001-5.509 4.482-9.99 9.991-9.99zm-45.676-7.206v-6.643h10.693c5.509 0 9.991 4.482 9.991 9.991v6.642h-10.694c-5.509.001-9.99-4.481-9.99-9.99zm152.92 266.557-123.858 72.117-124.231-72.334L255.28 342.64zm-124.236-87.686-97.447-55.253 89.448-50.717v50.717c0 4.143 3.357 7.5 7.5 7.5s7.5-3.357 7.5-7.5v-51.711l90.824 51.498z" fill="#5E873E" opacity="1" data-original="#5E873E">
</path>
<path d="M236.585 430.246h10.694v17.124c0 4.143 3.357 7.5 7.5 7.5s7.5-3.357 7.5-7.5v-17.124h9.498c12.985 0 23.549-10.563 23.549-23.549v-6.624c0-6.851-5.574-12.425-12.425-12.425h-12.073a23.426 23.426 0 0 0-14.387 4.925c-4.588-5.472-11.47-8.96-19.153-8.96h-11.455c-7.851 0-14.238 6.388-14.238 14.239v7.403c0 13.78 11.211 24.991 24.99 24.991zm34.243-27.597h9.498v4.049c0 4.714-3.835 8.549-8.549 8.549h-9.498v-4.049c0-4.715 3.835-8.549 8.549-8.549zm-44.233-4.036h10.693c5.509 0 9.991 4.481 9.991 9.99v6.643h-10.694c-5.509 0-9.99-4.481-9.99-9.99zM32.786 74.743c15.497 0 28.508-10.812 31.909-25.286h39.359l77.788 77.789c1.465 1.464 3.385 2.196 5.304 2.196s3.839-.732 5.304-2.196a7.5 7.5 0 0 0 0-10.607l-79.985-79.985a7.502 7.502 0 0 0-5.304-2.196H64.696C61.294 19.983 48.283 9.172 32.786 9.172 14.708 9.172 0 23.879 0 41.957s14.708 32.786 32.786 32.786zm0-50.571c9.807 0 17.785 7.979 17.785 17.785 0 9.808-7.979 17.786-17.785 17.786C22.979 59.743 15 51.765 15 41.957c0-9.807 7.979-17.785 17.786-17.785z"
fill="#5E873E" opacity="1" data-original="#5E873E">
</path>
<path d="M107.161 90.863H66.266c-4.143 0-7.5 3.357-7.5 7.5s3.357 7.5 7.5 7.5h40.896c4.143 0 7.5-3.357 7.5-7.5s-3.358-7.5-7.501-7.5zM107.161 121.984H21.803c-4.143 0-7.5 3.357-7.5 7.5s3.357 7.5 7.5 7.5h85.358c4.143 0 7.5-3.357 7.5-7.5s-3.357-7.5-7.5-7.5zM107.161 153.105H21.803c-4.143 0-7.5 3.357-7.5 7.5s3.357 7.5 7.5 7.5h85.358c4.143 0 7.5-3.357 7.5-7.5s-3.357-7.5-7.5-7.5zM21.803 105.863h17.415c4.143 0 7.5-3.357 7.5-7.5s-3.357-7.5-7.5-7.5H21.803c-4.143 0-7.5 3.357-7.5 7.5s3.357 7.5 7.5 7.5z"
fill="#5E873E" opacity="1" data-original="#5E873E">
</path>
</g>
</svg>