<svg xmlns="http://www.w3.org/2000/svg" version="1.1" xmlns:xlink="http://www.w3.org/1999/xlink" width="512" height="512" x="0" y="0" viewBox="0 0 32 32" style="enable-background:new 0 0 512 512" xml:space="preserve" class="">
<g>
<path d="M29.501 16.925a.5.5 0 0 0-.501.499c-.007 3.088-1.214 5.991-3.399 8.177S20.512 28.993 17.424 29a.5.5 0 0 0 .001 1h.001c3.354-.008 6.508-1.318 8.882-3.692S29.993 20.78 30 17.426a.5.5 0 0 0-.499-.501z"
 fill="#5F9191" opacity="1" data-original="#5F9191">
 </path>
 <path d="M25.552 17.422a8.141 8.141 0 0 1-2.387 5.743 8.109 8.109 0 0 1-5.742 2.387.5.5 0 0 0 .002 1h.002a9.099 9.099 0 0 0 6.445-2.68 9.14 9.14 0 0 0 2.68-6.444.5.5 0 0 0-.497-.503c-.236-.031-.501.221-.503.497z"
  fill="#5F9191" opacity="1" data-original="#5F9191">
  </path>
  <path d="m17.42 23.399.043-.002a5.936 5.936 0 0 0 4.183-1.752 5.935 5.935 0 0 0 1.752-4.221.5.5 0 0 0-1 0 4.946 4.946 0 0 1-1.459 3.514 4.943 4.943 0 0 1-3.514 1.459.504.504 0 0 0-.354.146l-.007.007a.498.498 0 0 0 .356.849zM20.072 16.925a.5.5 0 0 0-.495.505c.006.569-.217 1.108-.628 1.52s-.938.628-1.524.628a.504.504 0 0 0-.354.146l-.007.007a.498.498 0 0 0 .356.849l.045-.002a3.134 3.134 0 0 0 2.191-.921c.603-.603.93-1.396.921-2.236a.501.501 0 0 0-.5-.495l-.005-.001z"
   fill="#5F9191" opacity="1" data-original="#5F9191">
   </path>
   <path d="m13.747 18.612.605-.605a2.632 2.632 0 0 0 3.656-3.656l.605-.605 2.022 2.022a.498.498 0 0 0 .708 0l2.646-2.646.002-.001.001-.002 2.866-2.866.001-.001.001-.001 2.648-2.648a.5.5 0 0 0 0-.708l-4.751-4.751a.5.5 0 0 0-.707 0l-8.165 8.164a.5.5 0 0 0 0 .708l2.022 2.022-.607.606a2.639 2.639 0 0 0-3.338.318 2.64 2.64 0 0 0-.318 3.338l-.605.605-2.022-2.022a.514.514 0 0 0-.707 0l-8.164 8.165a.5.5 0 0 0 0 .707l4.751 4.751a.5.5 0 0 0 .708 0l2.648-2.648.001-.001.001-.001 2.866-2.866.002-.001.001-.002 2.646-2.646a.5.5 0 0 0 0-.707zm7.24-3.904-1.668-1.668 1.941-1.941 1.669 1.669zm.766-8.853 1.668 1.668-2.161 2.162-1.668-1.668zm2.375 2.375 1.669 1.669-2.161 2.161-1.669-1.669zm2.376.962-1.669-1.669 1.941-1.941 1.669 1.669zm-2.103-5.985 1.668 1.668-1.941 1.941-1.668-1.668zm-7.458 7.457 1.941-1.941 1.668 1.668-1.941 1.941zm-2.274 4.005a1.632 1.632 0 0 1 2.313 0 1.637 1.637 0 0 1 0 2.313 1.633 1.633 0 0 1-2.313 0 1.637 1.637 0 0 1 0-2.313zm-4.005 2.274 1.668 1.668-1.941 1.941-1.668-1.668zm-.765 8.854L8.23 24.128l2.161-2.161 1.669 1.669zm-2.376-2.376-1.668-1.668 2.161-2.161 1.668 1.668zm-2.375-.961 1.668 1.668-1.941 1.941-1.668-1.668zm2.103 5.985-1.669-1.669 1.941-1.941 1.669 1.669zm5.516-5.517-1.669-1.669 1.941-1.941 1.668 1.668z"
 fill="#5F9191" opacity="1" data-original="#5F9191">
 </path>
 </g>
 </svg>